<?xml version="1.0" encoding="UTF-8" standalone="no"?>
<!-- Generator: Adobe Illustrator 22.1.0, SVG Export Plug-In . SVG Version: 6.00 Build 0)  -->

<svg
   xmlns:dc="http://purl.org/dc/elements/1.1/"
   xmlns:cc="http://creativecommons.org/ns#"
   xmlns:rdf="http://www.w3.org/1999/02/22-rdf-syntax-ns#"
   xmlns:svg="http://www.w3.org/2000/svg"
   xmlns="http://www.w3.org/2000/svg"
   xmlns:sodipodi="http://sodipodi.sourceforge.net/DTD/sodipodi-0.dtd"
   xmlns:inkscape="http://www.inkscape.org/namespaces/inkscape"
   version="1.1"
   id="Layer_1"
   x="0px"
   y="0px"
   xml:space="preserve"
   sodipodi:docname="reckless-full-logotype-2018 - Copy.svg"
   width="283.23401"
   height="41.700001"
   inkscape:version="0.92.1 r15371"><metadata
     id="metadata11"><rdf:RDF><cc:Work
         rdf:about=""><dc:format>image/svg+xml</dc:format><dc:type
           rdf:resource="http://purl.org/dc/dcmitype/StillImage" /></cc:Work></rdf:RDF></metadata><defs
     id="defs9" /><sodipodi:namedview
     pagecolor="#ffffff"
     bordercolor="#666666"
     borderopacity="1"
     objecttolerance="10"
     gridtolerance="10"
     guidetolerance="10"
     inkscape:pageopacity="0"
     inkscape:pageshadow="2"
     inkscape:window-width="2560"
     inkscape:window-height="1377"
     id="namedview7"
     showgrid="false"
     inkscape:zoom="2.36"
     inkscape:cx="50"
     inkscape:cy="50"
     inkscape:window-x="1912"
     inkscape:window-y="-8"
     inkscape:window-maximized="1"
     inkscape:current-layer="Layer_1" /><style
     type="text/css"
     id="style2">
	.st0{fill:#FFFFFF;}
</style><path
     class="st0"
     d="m 104.40009,4.8 c 0.3,0.3 0.5,0.7 0.3,1.1 l -3.8,8.1 c -0.30001,0.6 -1.100003,0.7 -1.500004,0.2 -1.000001,-1.1 -2.100002,-2 -3.400003,-2.8 -1.700002,-1 -3.300003,-1.5 -4.900005,-1.5 -1.800001,0 -3.300002,0.5 -4.800003,1.4 -1.400002,0.9 -2.500002,2.2 -3.400004,3.8 -0.8,1.6 -1.2,3.4 -1.2,5.5 0,2 0.4,3.8 1.2,5.5 0.800001,1.6 1.900003,2.9 3.400004,3.8 1.400001,0.9 3.000002,1.4 4.800003,1.4 1.500002,0 3.100004,-0.4 4.800005,-1.3 1.300001,-0.6 2.500002,-1.5 3.600003,-2.4 0.499994,-0.4 1.200004,-0.3 1.500004,0.3 l 3.6,7.7 c 0.2,0.4 0.1,0.9 -0.3,1.1 -1.4,1.1 -3,2.1 -4.700004,2.9 -3.000003,1.4 -6.000005,2.1 -8.900007,2.1 -3.900004,0 -7.400007,-0.9 -10.60001,-2.7 -3.200002,-1.8 -5.600005,-4.3 -7.400006,-7.5 -1.800002,-3.2 -2.700002,-6.8 -2.700002,-10.8 0,-3.9 0.9,-7.4 2.700002,-10.6 C 74.500064,7 77.000066,4.5 80.300069,2.7 83.500073,0.9 87.100076,0 91.100078,0 c 2.900003,0 5.900006,0.6 8.800008,1.9 1.500004,0.9 3.099994,1.9 4.500004,2.9 z M 66.000057,1.1 H 39.000034 c -0.800001,0 -1.400001,0.6 -1.400001,1.4 v 37.1 c 0,0.8 0.6,1.4 1.400001,1.4 h 27.000023 c 0.800001,0 1.400001,-0.6 1.400001,-1.4 V 33 c 0,-0.8 -0.6,-1.4 -1.400001,-1.4 H 48.800042 v -5.8 h 15.200013 c 0.800001,0 1.400002,-0.6 1.400002,-1.4 v -6.6 c 0,-0.8 -0.600001,-1.4 -1.400002,-1.4 H 48.800042 v -5.8 h 17.200015 c 0.800001,0 1.400001,-0.6 1.400001,-1.4 V 2.6 c 0,-0.9 -0.6,-1.5 -1.400001,-1.5 z M 130.00011,17.2 141.80013,2.6 c 0.49999,-0.6 0.1,-1.5 -0.70001,-1.5 h -9.40001 c -0.6,0 -1.1,0.3 -1.5,0.7 L 118.7001,17.1 V 2.5 c 0,-0.8 -0.6,-1.4 -1.39999,-1.4 h -7.80002 c -0.8,0 -1.4,0.6 -1.4,1.4 v 37 c 0,0.8 0.6,1.4 1.4,1.4 h 7.80002 c 0.79999,0 1.39999,-0.6 1.39999,-1.4 v -8.4 l 4.00001,-4.9 7.80001,13.7 c 0.29999,0.6 0.9,0.9 1.59999,0.9 h 10.00001 c 0.7,0 1.20001,-0.8 0.80001,-1.4 z M 33.400029,13.9 c 0,-7 -5.900005,-12.7 -13.100011,-12.7 H 8.100007 C 7.4000064,1.2 7.0000061,1.9 7.3000063,2.5 l 3.3000037,7 c 0.3,0.7 1.000001,1.1 1.7,1.1 h 8.100008 c 1.800001,0.1 3.200003,1.5 3.200003,3.3 0,1.8 -1.400002,3.2 -3.200003,3.3 H 9.6000083 c -0.4000003,0 -0.9000008,0.2 -1.200001,0.5 L 0.60000051,24.4 C 0.20000017,24.8 0,25.3 0,25.8 V 39.6 C 0,40.4 0.60000051,41 1.4000012,41 H 9.8000085 C 10.60001,41 11.20001,40.4 11.20001,39.6 v -13 h 3.700002 l 6.200006,13.3 c 0.300001,0.7 1.000001,1.1 1.700001,1.1 h 9.200009 c 0.7,0 1.100001,-0.7 0.800001,-1.3 L 26.100022,25.3 c 4.300004,-2.1 7.300007,-6.4 7.300007,-11.4 z m 207.600181,4.7 c -1.8,-0.8 -4.00001,-1.6 -6.80001,-2.4 -2.4,-0.7 -4.2,-1.3 -5.30001,-1.9 -1.1,-0.6 -1.7,-1.4 -1.7,-2.5 0,-0.8 0.30001,-1.3 0.90001,-1.7 0.6,-0.4 1.4,-0.6 2.4,-0.6 1.6,0 3.6,0.4 6.10001,1.3 1.9,0.7 3.7,1.5 5.4,2.4 0.5,0.3 1.1,0.1 1.3,-0.4 l 3.5,-7.5 c 0.2,-0.4 0,-1 -0.39999,-1.2 -1.80001,-1 -3.90001,-1.9 -6.20001,-2.6 -2.9,-0.9 -5.80001,-1.3 -8.70001,-1.3 -3.2,0 -6.10001,0.5 -8.5,1.5 -2.4,1 -4.30001,2.5 -5.70001,4.4 -1.3,1.9 -2,4.2 -2,6.8 0,2.7 0.59999,4.8 1.9,6.5 1.3,1.6 2.8,2.9 4.6,3.6 1.80001,0.8 4.00001,1.5 6.70001,2.3 2.4,0.6 4.2,1.3 5.3,1.9 1.10001,0.6 1.7,1.4 1.7,2.5 0,0.9 -0.39999,1.6 -1.1,2.1 -0.7,0.5 -1.7,0.7 -3,0.7 -2,0 -4.5,-0.6 -7.30001,-1.8 -2.3,-1 -4.3,-2.1 -6,-3.5 -0.50001,-0.4 -1.2,-0.2 -1.4,0.3 l -3.40001,7.3 c -0.2,0.4 -0.1,0.9 0.30001,1.1 2.2,1.7 4.8,3 7.7,4 3.40001,1.2 6.7,1.7 10.00001,1.7 3,0 5.7,-0.5 8.2,-1.4 2.4,-1 4.40001,-2.4 5.80001,-4.3 1.4,-1.9 2.1,-4.3 2.1,-7.1 0,-2.7 -0.7,-5 -2,-6.6 -1.1,-1.5 -2.6,-2.7 -4.4,-3.6 z m 40.40003,3.8 c -1.3,-1.7 -2.9,-2.9 -4.6,-3.7 -1.8,-0.8 -4,-1.6 -6.80001,-2.4 -2.4,-0.7 -4.2,-1.3 -5.3,-1.9 -1.10001,-0.6 -1.7,-1.4 -1.7,-2.5 0,-0.8 0.3,-1.3 0.9,-1.7 0.6,-0.4 1.4,-0.6 2.4,-0.6 1.60001,0 3.6,0.4 6.10001,1.3 1.9,0.7 3.7,1.5 5.4,2.4 0.5,0.3 1.1,0.1 1.3,-0.4 l 3.50001,-7.5 c 0.19999,-0.4 0,-1 -0.4,-1.2 -1.80001,-1 -3.90001,-1.9 -6.20001,-2.6 -2.9,-0.9 -5.80001,-1.3 -8.70001,-1.3 -3.2,0 -6.10001,0.5 -8.5,1.5 -2.4,1 -4.30001,2.5 -5.70001,4.4 -1.3,1.9 -2,4.2 -2,6.8 0,2.7 0.59999,4.8 1.9,6.5 1.3,1.6 2.8,2.9 4.6,3.6 1.80001,0.8 4.00001,1.5 6.70001,2.3 2.4,0.6 4.2,1.3 5.30001,1.9 1.1,0.6 1.69999,1.4 1.69999,2.5 0,0.9 -0.39999,1.6 -1.1,2.1 -0.7,0.5 -1.7,0.7 -3,0.7 -2,0 -4.5,-0.6 -7.30001,-1.8 -2.3,-1 -4.3,-2.1 -6,-3.5 -0.50001,-0.4 -1.2,-0.2 -1.4,0.3 l -3.40001,7.3 c -0.2,0.4 -0.1,0.9 0.30001,1.1 2.2,1.7 4.8,3 7.7,4 3.40001,1.2 6.70001,1.7 10.00001,1.7 3,0 5.70001,-0.5 8.20001,-1.4 2.4,-1 4.4,-2.4 5.8,-4.3 1.4,-1.9 2.1,-4.3 2.1,-7.1 0.2,-2.6 -0.5,-4.8 -1.8,-6.5 z m -106.00009,9.1 h -17.20001 v -29 c 0,-0.8 -0.6,-1.4 -1.4,-1.4 h -8.40001 c -0.8,0 -1.4,0.6 -1.4,1.4 v 37.1 c 0,0.8 0.6,1.4 1.4,1.4 h 27.00002 c 0.8,0 1.4,-0.6 1.4,-1.4 V 33 c 0,-0.9 -0.6,-1.5 -1.4,-1.5 z M 208.70018,1.1 h -27.00002 c -0.80001,0 -1.40001,0.6 -1.40001,1.4 v 37.1 c 0,0.8 0.6,1.4 1.40001,1.4 h 27.00002 c 0.8,0 1.4,-0.6 1.4,-1.4 V 33 c 0,-0.8 -0.6,-1.4 -1.4,-1.4 h -17.20001 v -5.8 h 15.20001 c 0.8,0 1.4,-0.6 1.4,-1.4 v -6.6 c 0,-0.8 -0.6,-1.4 -1.4,-1.4 h -15.20001 v -5.8 h 17.20001 c 0.8,0 1.4,-0.6 1.4,-1.4 V 2.6 c 0,-0.9 -0.7,-1.5 -1.4,-1.5 z"
     id="path4"
     inkscape:connector-curvature="0"
     style="fill:#FFFFFF;stroke-width:1.00000036" /></svg>